<?xml version="1.0" standalone="no"?>
<!DOCTYPE svg PUBLIC "-//W3C//DTD SVG 20010904//EN"
 "http://www.w3.org/TR/2001/REC-SVG-20010904/DTD/svg10.dtd">
<svg version="1.0" xmlns="http://www.w3.org/2000/svg"
 width="92.000000pt" height="92.000000pt" viewBox="0 0 92.000000 92.000000"
 preserveAspectRatio="xMidYMid meet">
<metadata>
Created by potrace 1.14, written by Peter Selinger 2001-2017
</metadata>
<g transform="translate(0.000000,92.000000) scale(0.100000,-0.100000)"
fill="#000000" stroke="none">
<path d="M149 872 l-147 -3 1 -133 1 -133 458 0 458 0 0 134 0 133 -67 0 c-38
0 -178 2 -313 3 -135 1 -311 1 -391 -1z"/>
<path d="M189 582 l-187 -2 2 -133 1 -132 458 -1 457 -1 0 136 0 136 -272 0
c-150 0 -357 -1 -459 -3z"/>
<path d="M3 160 l0 -130 459 0 458 0 0 130 0 130 -459 0 -458 0 0 -130z"/>
</g>
</svg>
