<?xml version="1.0" encoding="UTF-8"?> <svg xmlns="http://www.w3.org/2000/svg" id="Layer_1" data-name="Layer 1" viewBox="0 0 146.03 107.14"><defs><style>.cls-1{fill:#fff;}</style></defs><path class="cls-1" d="M315.89,849a15.72,15.72,0,0,0-8.9.11v33H302.7V847.84a26.08,26.08,0,0,1,11-2.36,33.12,33.12,0,0,1,3.61.18Z" transform="translate(-302.7 -775.54)"></path><path class="cls-1" d="M337.51,860.3c-8.36,1-14.72,3.72-14.72,11.28,0,4.61,2.91,8.5,8.82,8.5a14.91,14.91,0,0,0,5.9-1.06Zm-6.21,22.38c-9.05,0-12.81-5.73-12.81-11.1,0-9.09,9.21-12.75,19-13.7v-2.54c0-5-2.61-7.14-7.75-7.14a18.77,18.77,0,0,0-8.43,1.95l-1.15-2.31a20.86,20.86,0,0,1,9.74-2.36c7.82,0,11.73,3.19,11.73,9.75v25.09a22.72,22.72,0,0,1-10.35,2.36" transform="translate(-302.7 -775.54)"></path><path class="cls-1" d="M368.31,882.09l-13.65-16.47c-.93-1.13-1.92-2.42-1.92-2.42h-.15v18.89h-4.14v-36h4.14v17h.15s.92-1.13,1.92-2.25l13.19-14.76h4.83l-15.72,17,16.48,19Z" transform="translate(-302.7 -775.54)"></path><rect class="cls-1" x="82.86" y="70.53" width="4.29" height="36.01"></rect><path class="cls-1" d="M409.68,882.68c-8.82,0-13.42-6.56-13.42-18.6s4.6-18.6,13.42-18.6a12.47,12.47,0,0,1,7.89,2.36l-1.38,2.25A11.12,11.12,0,0,0,410,848.2c-6.21,0-9.28,5.55-9.28,15.76s3.3,15.82,9.28,15.82a10.32,10.32,0,0,0,6.21-1.88l1.38,2.42a12.69,12.69,0,0,1-7.89,2.36" transform="translate(-302.7 -775.54)"></path><path class="cls-1" d="M434.25,882.68c-8.82,0-13.41-6.56-13.41-18.6s4.59-18.6,13.41-18.6a12.49,12.49,0,0,1,7.9,2.36l-1.38,2.25a11.12,11.12,0,0,0-6.21-1.89c-6.21,0-9.28,5.55-9.28,15.76s3.3,15.82,9.28,15.82a10.32,10.32,0,0,0,6.21-1.88l1.38,2.42a12.7,12.7,0,0,1-7.9,2.36" transform="translate(-302.7 -775.54)"></path><path class="cls-1" d="M448,807.63c-3.59-.43-7.22-.75-10.86-1-1.88-.12-3.77-.23-5.66-.31l-2.71-.12-2.44,0c-1.33,0-2.66,0-4,0h-.68l-2.39,0c-1.65,1.33-3.3,2.68-4.9,4q-3.78,3.24-7.38,6.61h0c1.09,0,2.2,0,3.27,0h1.11c6.21,0,12.55.33,18.86.91h.07l.07,0c5.74-3.45,11.7-6.66,17.71-9.53l.71-.34Z" transform="translate(-302.7 -775.54)"></path><path class="cls-1" d="M406.06,799.23l-.56.06h-.1l-3.42.4c-1,1.11-2.05,2.21-3.05,3.33-1.25,1.41-2.49,2.83-3.7,4.25,3.21-.4,6.47-.75,9.77-1h0l.26,0h.11l.76-.06h.14l.91-.08c3.83-.26,7.81-.42,11.86-.48,3-2.44,6.16-4.81,9.33-7.08l.58-.42h-.71c-2.9,0-5.3,0-7.56.12-4.77.16-9.68.51-14.62,1Z" transform="translate(-302.7 -775.54)"></path><path class="cls-1" d="M385.82,794.74l-.51.12-.1,0q-2.56.58-5.11,1.24c-.43.65-.87,1.3-1.3,2-1.29,2-2.54,4.09-3.75,6.16q5.81-1.49,11.71-2.65l.28-.05.11,0,.45-.09,1-.19h0c4.35-.82,8.75-1.5,13.15-2,2.57-2.75,5.21-5.43,7.88-8l.48-.47-.67.08a213.3,213.3,0,0,0-23.61,3.93Z" transform="translate(-302.7 -775.54)"></path><path class="cls-1" d="M394.47,807.38q2-2.37,4.08-4.69c.87-1,1.75-1.93,2.63-2.89-4.52.57-9,1.29-13.49,2.14h0l-.44.08-.12,0h0c-4.18.81-8.34,1.76-12.45,2.81-.49.85-1,1.69-1.48,2.54-.82,1.44-1.62,2.91-2.42,4.39,6.61-1.62,13.31-2.95,20.07-3.94h0l.29,0,.14,0,.39,0,.87-.13,1.93-.23" transform="translate(-302.7 -775.54)"></path><path class="cls-1" d="M310.9,827.21l1.53-1.06.38-.25a211.87,211.87,0,0,1,67-30.24c2-3,4-6,6.16-8.95q4-5.44,8.25-10.61l.47-.56-.7.2a213.82,213.82,0,0,0-89.49,50.9c-.64.56-1.31,1.14-1.66,1.43l-.11.1,0,.35h0c.11,1.43.2,2.85.28,4.23l0,.29.28-.08c1.22-.36,2.45-.72,3.67-1.06l1.27-.34,2.43-.65.08,0-.15-1.53h0l-.08-.77-.08-.72,0-.31.25-.17Z" transform="translate(-302.7 -775.54)"></path><path class="cls-1" d="M418.38,806.12h-.44c-3.66.07-7.25.23-10.73.47l-1,.08-.77.07h-.11c-3.58.28-7.11.65-10.55,1.09q-2.12,2.5-4.11,5c-1.35,1.7-2.68,3.44-4,5.19l-.41.57-.75,1c1.61-.07,3.13-.11,4.67-.14h.7c1.25,0,2.5,0,3.74,0h1.09c.91,0,1.82,0,2.72,0l1.08,0c1.21,0,2.41.05,3.59.1h.1l.07-.07c.77-.75,1.55-1.5,2.35-2.25l.55-.52h0c2.53-2.38,5.14-4.73,7.82-7,1.44-1.23,2.91-2.44,4.39-3.64" transform="translate(-302.7 -775.54)"></path><path class="cls-1" d="M386,818.14c1.39-1.89,2.81-3.76,4.26-5.59,1.22-1.54,2.48-3.08,3.76-4.6-.75.1-1.51.19-2.25.3h0l-.39,0-.13,0q-10.5,1.53-20.76,4.08c-.56,1.06-1.12,2.11-1.66,3.18-1,1.92-1.92,3.87-2.84,5.81v0l-.26.56h0l-.21.45q3.27-.23,6.56-.34l1.78-.05h.47l1.25,0H376l1.56,0h1.78c1,0,2,0,3,0h.82l.07-.1c.4-.56.82-1.11,1.22-1.67l.39-.54c.24-.33.47-.66.72-1l.41-.56" transform="translate(-302.7 -775.54)"></path><path class="cls-1" d="M319,827.53l.09,0,.36-.27,0,0h0a211.9,211.9,0,0,1,54.84-22.77c1.31-2.22,2.64-4.43,4-6.61.32-.51.66-1,1-1.49a210.85,210.85,0,0,0-66.62,30.26h0l-1.52,1.06-.26.18.08.72c.09.75.17,1.49.24,2.24,0,.17,0,.34.05.51.05.5.1,1,.14,1.47l0,.29.28-.09q3.56-1.2,7.16-2.26c-.06-.38-.11-.77-.17-1.16,0-.17-.05-.34-.07-.51s0-.28-.06-.42l0-.17,0-.28-.06-.38.36-.16Z" transform="translate(-302.7 -775.54)"></path><path class="cls-1" d="M327.2,828.64l0-.17v0l0-.24-.05-.29,0-.1.35-.17.43-.21.1,0,.11,0,.34-.17.51-.25,2.2-1.07,0,0A213.25,213.25,0,0,1,370.11,812c.87-1.62,1.75-3.24,2.64-4.81.4-.71.82-1.41,1.23-2.11a211.2,211.2,0,0,0-54.21,22.59l-.4.31-.15.06-.16.08,0,.27v0l0,.16c0,.13,0,.25.05.38s.05.35.08.52l.15,1.12c0,.17,0,.34.07.51.08.57.16,1.14.23,1.69l0,.29.27-.1q3.71-1.4,7.47-2.64c-.07-.45-.15-.9-.24-1.36,0-.1,0-.19-.05-.3" transform="translate(-302.7 -775.54)"></path><path class="cls-1" d="M369.79,812.57a212.19,212.19,0,0,0-39.56,14.29h0c-.36.18-.74.34-1.11.52h0l-.58.28-.28.14-.11.05h0l-.53.25,0,.21,0,.07v0l0,.15,0,.27c.09.44.16.88.24,1.32l.09.51c.13.71.24,1.41.36,2.1l0,.29.27-.11a212.23,212.23,0,0,1,22.32-7.82l2.26-.64.87,0,1.5-.08h.42l1.93-.05,1.93,0,1.9,0,2.05,0h.14l.06-.13.51-1.09c.09-.17.17-.35.25-.53l.17-.35a.14.14,0,0,1,0-.06l.25-.53v0c1-2,2-4.12,3-6.15.48-.93,1-1.84,1.45-2.77" transform="translate(-302.7 -775.54)"></path></svg> 